<svg preserveAspectRatio="none" width="100%" height="100%" overflow="visible" style="display: block;" viewBox="0 0 32 32" fill="none" xmlns="http://www.w3.org/2000/svg">
<g id="Content">
<g clip-path="url(#clip0_0_4)">
<path d="M0 12.8C0 8.31958 0 6.07937 0.871948 4.36808C1.63893 2.86278 2.86278 1.63893 4.36808 0.871948C6.07937 0 8.31958 0 12.8 0H19.2C23.6804 0 25.9206 0 27.6319 0.871948C29.1372 1.63893 30.3611 2.86278 31.1281 4.36808C32 6.07937 32 8.31958 32 12.8V19.2C32 23.6804 32 25.9206 31.1281 27.6319C30.3611 29.1372 29.1372 30.3611 27.6319 31.1281C25.9206 32 23.6804 32 19.2 32H12.8C8.31958 32 6.07937 32 4.36808 31.1281C2.86278 30.3611 1.63893 29.1372 0.871948 27.6319C0 25.9206 0 23.6804 0 19.2V12.8Z" fill="var(--fill-0, white)"/>
<path d="M0 12.8C0 8.31958 0 6.07937 0.871948 4.36808C1.63893 2.86278 2.86278 1.63893 4.36808 0.871948C6.07937 0 8.31958 0 12.8 0H19.2C23.6804 0 25.9206 0 27.6319 0.871948C29.1372 1.63893 30.3611 2.86278 31.1281 4.36808C32 6.07937 32 8.31958 32 12.8V19.2C32 23.6804 32 25.9206 31.1281 27.6319C30.3611 29.1372 29.1372 30.3611 27.6319 31.1281C25.9206 32 23.6804 32 19.2 32H12.8C8.31958 32 6.07937 32 4.36808 31.1281C2.86278 30.3611 1.63893 29.1372 0.871948 27.6319C0 25.9206 0 23.6804 0 19.2V12.8Z" fill="url(#paint0_linear_0_4)"/>
<g id="Grid">
<path id="Circle" fill-rule="evenodd" clip-rule="evenodd" d="M16 2.03883C8.28946 2.03883 2.03883 8.28946 2.03883 16C2.03883 23.7105 8.28946 29.9612 16 29.9612C23.7105 29.9612 29.9612 23.7105 29.9612 16C29.9612 8.28946 23.7105 2.03883 16 2.03883ZM1.96117 16C1.96117 8.24656 8.24656 1.96117 16 1.96117C23.7534 1.96117 30.0388 8.24656 30.0388 16C30.0388 23.7534 23.7534 30.0388 16 30.0388C8.24656 30.0388 1.96117 23.7534 1.96117 16Z" fill="var(--fill-0, #D0D5DD)"/>
<path id="Circle_2" fill-rule="evenodd" clip-rule="evenodd" d="M16 12.0779C13.8338 12.0779 12.0777 13.834 12.0777 16.0002C12.0777 18.1665 13.8338 19.9226 16 19.9226C18.1663 19.9226 19.9223 18.1665 19.9223 16.0002C19.9223 13.834 18.1663 12.0779 16 12.0779ZM12 16.0002C12 13.7911 13.7909 12.0002 16 12.0002C18.2092 12.0002 20 13.7911 20 16.0002C20 18.2094 18.2092 20.0002 16 20.0002C13.7909 20.0002 12 18.2094 12 16.0002Z" fill="var(--fill-0, #D0D5DD)"/>
<path id="Circle_3" fill-rule="evenodd" clip-rule="evenodd" d="M16 13.3201C14.5201 13.3201 13.3204 14.5198 13.3204 15.9997C13.3204 17.4796 14.5201 18.6793 16 18.6793C17.4799 18.6793 18.6796 17.4796 18.6796 15.9997C18.6796 14.5198 17.4799 13.3201 16 13.3201ZM13.2427 15.9997C13.2427 14.4769 14.4772 13.2424 16 13.2424C17.5228 13.2424 18.7573 14.4769 18.7573 15.9997C18.7573 17.5225 17.5228 18.757 16 18.757C14.4772 18.757 13.2427 17.5225 13.2427 15.9997Z" fill="var(--fill-0, #D0D5DD)"/>
<path id="Line" d="M15.9612 0H16.0388V32H15.9612V0Z" fill="var(--fill-0, #D0D5DD)"/>
<path id="Line_2" d="M32 15.9609L32 16.0386L-3.39506e-09 16.0386L0 15.9609L32 15.9609Z" fill="var(--fill-0, #D0D5DD)"/>
<path id="Line_3" d="M26.602 0H26.6796V32H26.602V0Z" fill="var(--fill-0, #D0D5DD)"/>
<path id="Line_4" d="M10.6408 0H10.7184V32H10.6408V0Z" fill="var(--fill-0, #D0D5DD)"/>
<path id="Line_5" d="M21.2816 0H21.3592V32H21.2816V0Z" fill="var(--fill-0, #D0D5DD)"/>
<path id="Line_6" d="M5.32037 0H5.39804V32H5.32037V0Z" fill="var(--fill-0, #D0D5DD)"/>
<path id="Line_7" d="M32 26.6016L32 26.6792L-3.39506e-09 26.6792L0 26.6016L32 26.6016Z" fill="var(--fill-0, #D0D5DD)"/>
<path id="Line_8" d="M32 10.6406L32 10.7183L-3.39506e-09 10.7183L0 10.6406L32 10.6406Z" fill="var(--fill-0, #D0D5DD)"/>
<path id="Line_9" d="M32 21.2812L32 21.3589L-3.39506e-09 21.3589L0 21.2812L32 21.2812Z" fill="var(--fill-0, #D0D5DD)"/>
<path id="Line_10" d="M32 5.32031L32 5.39798L-3.39506e-09 5.39798L0 5.32031L32 5.32031Z" fill="var(--fill-0, #D0D5DD)"/>
</g>
<g id="Star 1" filter="url(#filter0_dd_0_4)">
<path d="M15.2392 7.84164C15.4786 7.10459 16.5214 7.10459 16.7608 7.84164L18.1778 12.2025C18.2849 12.5322 18.5921 12.7553 18.9386 12.7553H23.5239C24.2989 12.7553 24.6211 13.747 23.9942 14.2025L20.2846 16.8977C20.0042 17.1014 19.8869 17.4625 19.994 17.7921L21.4109 22.153C21.6504 22.8901 20.8068 23.503 20.1798 23.0475L16.4702 20.3523C16.1898 20.1486 15.8102 20.1486 15.5298 20.3523L11.8202 23.0475C11.1932 23.503 10.3496 22.8901 10.5891 22.153L12.006 17.7921C12.1131 17.4625 11.9958 17.1014 11.7154 16.8977L8.00583 14.2025C7.37886 13.747 7.70107 12.7553 8.47605 12.7553H13.0614C13.4079 12.7553 13.7151 12.5322 13.8222 12.2025L15.2392 7.84164Z" fill="url(#paint1_linear_0_4)"/>
</g>
</g>
<path d="M12.7998 0.0996094H19.2002C21.442 0.0996094 23.1173 0.100404 24.4463 0.208984C25.7741 0.317475 26.7477 0.533352 27.5869 0.960938C29.0732 1.7183 30.2817 2.92681 31.0391 4.41309C31.4666 5.25227 31.6825 6.22592 31.791 7.55371C31.8996 8.88267 31.9004 10.558 31.9004 12.7998V19.2002C31.9004 21.442 31.8996 23.1173 31.791 24.4463C31.6825 25.7741 31.4666 26.7477 31.0391 27.5869C30.2817 29.0732 29.0732 30.2817 27.5869 31.0391C26.7477 31.4666 25.7741 31.6825 24.4463 31.791C23.1173 31.8996 21.442 31.9004 19.2002 31.9004H12.7998C10.558 31.9004 8.88267 31.8996 7.55371 31.791C6.22592 31.6825 5.25227 31.4666 4.41309 31.0391C2.92681 30.2817 1.7183 29.0732 0.960938 27.5869C0.533352 26.7477 0.317475 25.7741 0.208984 24.4463C0.100404 23.1173 0.0996094 21.442 0.0996094 19.2002V12.7998C0.0996094 10.558 0.100404 8.88267 0.208984 7.55371C0.317475 6.22592 0.533352 5.25227 0.960938 4.41309C1.7183 2.92681 2.92681 1.7183 4.41309 0.960938C5.25227 0.533352 6.22592 0.317475 7.55371 0.208984C8.88267 0.100404 10.558 0.0996094 12.7998 0.0996094Z" stroke="var(--stroke-0, #D0D5DD)" stroke-width="0.2"/>
</g>
<defs>
<filter id="filter0_dd_0_4" x="4.67452" y="5.28885" width="22.651" height="21.915" filterUnits="userSpaceOnUse" color-interpolation-filters="sRGB">
<feFlood flood-opacity="0" result="BackgroundImageFix"/>
<feColorMatrix in="SourceAlpha" type="matrix" values="0 0 0 0 0 0 0 0 0 0 0 0 0 0 0 0 0 0 127 0" result="hardAlpha"/>
<feOffset dy="1"/>
<feGaussianBlur stdDeviation="1"/>
<feColorMatrix type="matrix" values="0 0 0 0 0.0627451 0 0 0 0 0.0941176 0 0 0 0 0.156863 0 0 0 0.06 0"/>
<feBlend mode="normal" in2="BackgroundImageFix" result="effect1_dropShadow_0_4"/>
<feColorMatrix in="SourceAlpha" type="matrix" values="0 0 0 0 0 0 0 0 0 0 0 0 0 0 0 0 0 0 127 0" result="hardAlpha"/>
<feOffset dy="1"/>
<feGaussianBlur stdDeviation="1.5"/>
<feColorMatrix type="matrix" values="0 0 0 0 0.0627451 0 0 0 0 0.0941176 0 0 0 0 0.156863 0 0 0 0.1 0"/>
<feBlend mode="normal" in2="effect1_dropShadow_0_4" result="effect2_dropShadow_0_4"/>
<feBlend mode="normal" in="SourceGraphic" in2="effect2_dropShadow_0_4" result="shape"/>
</filter>
<linearGradient id="paint0_linear_0_4" x1="16" y1="0" x2="16" y2="32" gradientUnits="userSpaceOnUse">
<stop stop-color="white"/>
<stop offset="1" stop-color="#D0D5DD"/>
</linearGradient>
<linearGradient id="paint1_linear_0_4" x1="10.75" y1="26.5" x2="21.25" y2="5.5" gradientUnits="userSpaceOnUse">
<stop stop-color="#53389E"/>
<stop offset="1" stop-color="#6941C6"/>
</linearGradient>
<clipPath id="clip0_0_4">
<path d="M0 12.8C0 8.31958 0 6.07937 0.871948 4.36808C1.63893 2.86278 2.86278 1.63893 4.36808 0.871948C6.07937 0 8.31958 0 12.8 0H19.2C23.6804 0 25.9206 0 27.6319 0.871948C29.1372 1.63893 30.3611 2.86278 31.1281 4.36808C32 6.07937 32 8.31958 32 12.8V19.2C32 23.6804 32 25.9206 31.1281 27.6319C30.3611 29.1372 29.1372 30.3611 27.6319 31.1281C25.9206 32 23.6804 32 19.2 32H12.8C8.31958 32 6.07937 32 4.36808 31.1281C2.86278 30.3611 1.63893 29.1372 0.871948 27.6319C0 25.9206 0 23.6804 0 19.2V12.8Z" fill="white"/>
</clipPath>
</defs>
</svg>
